<?xml version="1.0" standalone="no"?>
<!DOCTYPE svg PUBLIC "-//W3C//DTD SVG 20010904//EN"
 "http://www.w3.org/TR/2001/REC-SVG-20010904/DTD/svg10.dtd">
<svg version="1.0" xmlns="http://www.w3.org/2000/svg"
 width="420.000000pt" height="246.000000pt" viewBox="0 0 420.000000 246.000000"
 preserveAspectRatio="xMidYMid meet">

<g transform="translate(0.000000,246.000000) scale(0.100000,-0.100000)"
fill="#000000" stroke="none">
<path d="M2502 2198 c-45 -49 -79 -95 -75 -100 3 -6 2 -8 -4 -5 -5 3 -25 -11
-44 -31 -60 -65 -63 -70 -49 -87 7 -8 16 -13 20 -10 4 3 14 -3 21 -13 13 -15
12 -16 -3 -3 -10 7 -18 9 -18 4 0 -12 35 -45 41 -38 3 2 5 -4 6 -15 1 -15 -6
-20 -38 -22 l-40 -3 -2 -432 -2 -432 53 51 c50 50 62 66 43 54 -5 -3 -8 2 -7
12 0 9 7 21 14 25 7 5 10 12 7 17 -3 5 -1 11 4 14 19 12 23 -16 5 -37 -17 -22
73 70 128 129 l28 31 -2 491 -3 490 -83 -90z m77 35 c0 -11 -3 -13 -6 -5 -2 6
-10 9 -15 6 -7 -4 -8 -2 -4 4 11 18 26 14 25 -5z m-19 -19 c0 -8 -19 -13 -24
-6 -3 5 1 9 9 9 8 0 15 -2 15 -3z m0 -48 c0 -5 -8 -2 -18 7 -10 10 -22 14 -27
10 -4 -5 -5 -2 -1 4 5 10 11 10 26 0 11 -6 20 -16 20 -21z m-60 1 c0 -2 -10
-12 -22 -23 l-23 -19 19 23 c18 21 26 27 26 19z m77 -600 c-1 -105 -2 -19 -2
193 0 212 1 298 2 192 2 -105 2 -279 0 -385z m-127 517 c-1 -4 4 -11 12 -16 8
-5 3 -7 -16 -4 -16 3 -31 8 -35 12 -3 3 3 4 14 2 15 -2 19 2 18 17 -1 11 0 14
3 8 3 -7 5 -15 4 -19z m-89 -67 c-6 -8 -7 -18 -3 -22 4 -5 1 -5 -5 -1 -8 4
-13 2 -13 -5 0 -7 -3 -9 -7 -6 -3 4 2 16 12 27 20 22 34 28 16 7z m30 -20 c-1
-12 -15 -9 -19 4 -3 6 1 10 8 8 6 -3 11 -8 11 -12z m183 -692 c-4 -8 -16 -15
-28 -15 -20 0 -20 1 4 14 14 8 26 14 27 15 1 1 0 -6 -3 -14z m-54 -52 c-1 -14
-61 -75 -68 -69 -3 4 4 14 17 22 12 9 20 22 17 30 -3 8 0 11 10 7 7 -3 14 0
14 6 0 6 2 11 5 11 3 0 5 -3 5 -7z m-133 -155 c-3 -7 -5 -2 -5 12 0 14 2 19 5
13 2 -7 2 -19 0 -25z m-36 -34 c-12 -15 -21 -22 -21 -16 0 6 7 17 15 26 8 8
16 23 16 33 1 17 2 17 6 1 2 -10 -5 -30 -16 -44z"/>
<path d="M2163 2009 c-35 -36 -63 -68 -63 -71 0 -4 11 -5 25 -3 14 1 28 -2 31
-7 4 -5 -4 -8 -17 -7 -13 2 -30 -1 -38 -5 -11 -7 -12 -6 -6 5 8 12 6 12 -8 0
-9 -7 -14 -18 -10 -24 3 -5 2 -7 -4 -4 -6 4 -36 -23 -68 -59 l-58 -66 23 -21
22 -22 -16 27 c-10 14 -13 29 -8 32 13 8 22 -3 16 -19 -3 -7 -1 -16 5 -19 6
-4 8 -12 5 -19 -2 -7 4 -22 16 -32 29 -27 25 -35 -20 -35 l-39 0 -3 -290 c-2
-160 -1 -295 0 -300 2 -6 10 -10 18 -10 9 0 12 -5 9 -10 -4 -6 -12 -7 -18 -4
-7 4 -9 4 -5 -1 4 -4 3 -15 -3 -24 -18 -24 116 114 204 210 l77 86 0 282 0
281 -45 0 c-38 0 -43 -3 -38 -17 6 -15 5 -15 -8 -4 -12 12 -9 19 23 55 21 22
38 45 38 51 0 5 -7 2 -15 -9 -13 -18 -14 -18 -12 2 1 13 7 19 18 17 26 -5 41
19 37 62 l-3 38 -62 -66z m55 13 c-1 -16 -7 -29 -14 -29 -8 0 -8 8 0 29 6 15
12 28 13 28 2 0 2 -13 1 -28z m-35 -744 c-20 -21 -41 -38 -46 -38 -6 0 2 9 17
21 14 11 24 24 21 29 -2 4 4 19 15 33 19 23 20 43 22 289 l3 263 2 -279 3
-280 -37 -38z m-109 556 c3 -8 2 -12 -4 -9 -6 3 -10 10 -10 16 0 14 7 11 14
-7z m-54 -8 c0 -2 -8 -10 -17 -17 -16 -13 -17 -12 -4 4 13 16 21 21 21 13z
m35 -145 c-6 -5 -25 10 -25 20 0 5 6 4 14 -3 8 -7 12 -15 11 -17z m-22 -48
c-7 -2 -19 -2 -25 0 -7 3 -2 5 12 5 14 0 19 -2 13 -5z m57 -458 c-24 -24 -46
-43 -48 -40 -3 2 9 16 26 30 21 17 29 31 25 42 -5 13 -2 15 11 10 14 -6 17 -4
12 10 -6 15 -5 16 5 5 11 -10 4 -21 -31 -57z m-50 -10 c-7 -8 -16 -12 -22 -9
-5 3 -6 -6 -3 -23 5 -26 5 -26 -5 -5 -11 25 -5 46 10 37 5 -3 11 -1 15 5 3 5
9 10 12 10 3 0 0 -7 -7 -15z m-38 -60 c6 -30 -11 -48 -32 -33 -12 8 -12 9 3 4
14 -4 17 1 17 24 0 37 6 39 12 5z"/>
<path d="M2190 1308 c-12 -22 -12 -22 6 -6 10 10 15 20 12 24 -4 3 -12 -5 -18
-18z"/>
<path d="M1840 1851 c-8 -10 -43 -49 -77 -86 -35 -37 -60 -72 -56 -79 3 -6 2
-8 -2 -3 -14 12 -94 -73 -88 -92 4 -9 3 -13 -2 -9 -4 4 -14 3 -22 -3 -10 -9
-13 -69 -13 -293 l1 -281 20 25 c12 14 60 68 109 120 48 52 101 111 119 131
l31 37 0 171 0 171 -44 0 c-25 0 -48 5 -52 12 -4 6 -3 8 3 5 12 -8 49 30 40
39 -4 4 -9 -1 -13 -10 -3 -9 -13 -16 -22 -16 -15 0 -15 1 -1 16 9 8 22 16 30
17 8 2 20 6 27 10 19 13 -4 47 -28 42 -11 -2 -18 0 -15 5 7 11 29 7 49 -9 21
-17 28 1 24 58 -3 38 -4 39 -18 22z m7 -63 c-2 -13 -4 -5 -4 17 -1 22 1 32 4
23 2 -10 2 -28 0 -40z m-80 -47 c0 -11 -5 -17 -9 -15 -4 3 -8 0 -8 -6 0 -6 -4
-9 -10 -5 -5 3 -2 14 8 25 22 23 21 23 19 1z m53 9 c0 -5 -5 -10 -11 -10 -5 0
-7 5 -4 10 3 6 8 10 11 10 2 0 4 -4 4 -10z m10 -454 c-16 -17 -22 -18 -32 -7
-11 11 -10 13 0 7 7 -4 19 -2 27 4 12 10 15 48 17 184 l2 171 3 -169 c3 -159
2 -171 -17 -190z m-160 341 c0 -2 -10 -12 -22 -23 l-23 -19 19 23 c18 21 26
27 26 19z m-73 -109 c-3 -7 -5 -2 -5 12 0 14 2 19 5 13 2 -7 2 -19 0 -25z m0
-340 c-1 -62 -3 -14 -3 107 0 121 2 172 3 113 2 -59 2 -158 0 -220z m197 77
c3 3 2 0 -4 -7 -5 -6 -17 -13 -25 -14 -12 -2 -13 1 -6 10 6 7 7 17 3 22 -4 4
0 3 9 -4 9 -6 19 -10 23 -7z m-38 -52 c-7 -7 -26 7 -26 19 0 6 6 6 15 -2 9 -7
13 -15 11 -17z m-56 -25 c-13 -13 -19 -16 -15 -8 14 25 28 41 32 36 3 -3 -5
-15 -17 -28z m30 -1 c0 -2 -11 -14 -24 -26 -18 -17 -26 -19 -31 -10 -5 7 -4
10 2 6 6 -4 18 2 28 13 17 19 25 24 25 17z m-70 -57 c0 -5 -5 -10 -11 -10 -5
0 -7 5 -4 10 3 6 8 10 11 10 2 0 4 -4 4 -10z m-35 -50 c3 -5 1 -10 -4 -10 -6
0 -11 5 -11 10 0 6 2 10 4 10 3 0 8 -4 11 -10z m-20 -19 c3 -5 1 -12 -5 -16
-5 -3 -10 1 -10 9 0 18 6 21 15 7z"/>
<path d="M2688 748 c-8 -22 3 -38 27 -38 24 0 35 16 28 38 -3 6 -15 12 -28 12
-12 0 -25 -6 -27 -12z"/>
<path d="M2590 711 c0 -39 0 -39 -29 -28 -57 21 -123 -45 -107 -108 12 -48 42
-64 117 -63 l69 2 0 118 0 118 -25 0 c-22 0 -25 -4 -25 -39z m-19 -71 c22 -12
26 -59 7 -78 -18 -18 -56 -14 -68 7 -14 28 -13 38 10 61 23 23 25 23 51 10z"/>
<path d="M1370 619 c0 -92 3 -120 13 -117 8 3 13 39 15 121 2 100 0 117 -13
117 -13 0 -15 -19 -15 -121z"/>
<path d="M1840 725 c0 -8 7 -15 15 -15 8 0 15 7 15 15 0 8 -7 15 -15 15 -8 0
-15 -7 -15 -15z"/>
<path d="M1960 619 c0 -108 0 -110 22 -107 20 3 22 8 19 61 -1 31 1 57 6 57 5
0 19 -20 33 -45 13 -24 30 -47 37 -49 12 -5 33 22 71 89 9 16 11 8 12 -47 0
-66 1 -68 25 -68 l25 0 0 110 c0 108 -1 110 -23 110 -17 0 -32 -16 -63 -66
l-42 -67 -38 66 c-30 51 -44 67 -61 67 -22 0 -23 -3 -23 -111z"/>
<path d="M1170 610 c0 -91 3 -110 15 -110 11 0 15 12 15 50 l0 50 55 0 c30 0
55 4 55 8 0 5 -19 8 -42 7 -61 -2 -68 2 -68 46 l0 39 65 0 c37 0 65 4 65 10 0
6 -33 10 -80 10 l-80 0 0 -110z"/>
<path d="M2304 680 c-43 -18 -66 -77 -48 -125 15 -39 118 -61 144 -30 18 22 4
34 -38 28 -27 -4 -42 -1 -51 11 -12 14 -7 16 53 16 63 0 66 1 66 24 0 54 -74
99 -126 76z m64 -42 c21 -21 13 -28 -28 -28 -22 0 -40 4 -40 8 0 14 23 32 40
32 9 0 21 -5 28 -12z"/>
<path d="M3097 683 c-4 -3 -25 -6 -47 -5 l-40 2 0 -85 c0 -84 0 -85 25 -85 23
0 25 3 25 53 0 63 10 80 41 75 22 -3 24 -8 27 -65 3 -59 4 -63 27 -63 22 0 24
4 27 56 3 60 20 83 52 71 12 -5 16 -20 16 -67 0 -57 1 -60 25 -60 24 0 25 2
25 69 0 73 -10 93 -50 106 -11 4 -34 -1 -51 -9 -28 -14 -34 -14 -52 -1 -23 16
-40 19 -50 8z"/>
<path d="M2690 595 c0 -84 0 -85 25 -85 25 0 25 1 25 85 0 84 0 85 -25 85 -25
0 -25 -1 -25 -85z"/>
<path d="M2790 610 c0 -86 14 -99 108 -98 l62 1 0 84 c0 81 0 83 -25 83 -22 0
-24 -4 -27 -56 -3 -60 -20 -83 -52 -71 -12 5 -16 20 -16 67 0 57 -1 60 -25 60
-24 0 -25 -2 -25 -70z"/>
<path d="M1476 648 c-43 -39 -36 -107 14 -133 35 -18 51 -19 84 -4 35 16 23
30 -14 16 -25 -10 -34 -8 -57 9 -48 36 -41 44 36 44 65 0 71 2 71 20 0 31 -44
70 -79 70 -17 0 -41 -10 -55 -22z m98 -20 c8 -12 13 -24 11 -28 -2 -3 -28 -6
-57 -5 -40 2 -52 6 -50 16 11 43 70 54 96 17z"/>
<path d="M1650 664 c0 -3 12 -21 27 -41 18 -24 24 -39 17 -48 -5 -7 -19 -27
-32 -44 -17 -23 -20 -31 -9 -31 8 0 25 16 38 35 13 19 26 35 29 35 3 0 15 -16
28 -35 12 -19 27 -35 32 -35 16 0 12 10 -16 47 -28 36 -26 59 6 88 11 10 20
22 20 27 0 10 -30 11 -30 1 -1 -5 -9 -19 -20 -31 l-20 -24 -26 31 c-23 28 -44
40 -44 25z"/>
<path d="M1840 585 c0 -69 3 -85 15 -85 12 0 15 16 15 85 0 69 -3 85 -15 85
-12 0 -15 -16 -15 -85z"/>
</g>
</svg>
